<svg xmlns="http://www.w3.org/2000/svg" viewBox="0 0 480 270" width="480" height="270" role="img" aria-label="Duck Hunt game board">
  <rect width="480" height="180" fill="#64b5f6"/>
  
  <g fill="#ffffff" fill-opacity="0.9">
    <g><rect x="60" y="30" width="56" height="14"/><rect x="72" y="20" width="30" height="12"/></g>
    <g><rect x="330" y="120" width="56" height="14"/><rect x="342" y="110" width="30" height="12"/></g>
  </g>
  <rect x="0" y="180" width="480" height="90" fill="#66bb6a"/>
  <rect x="0" y="180" width="480" height="6" fill="#43a047"/><g transform="translate(30 198)"><rect x="40" y="0" width="4" height="4" fill="#3e2723"/><rect x="44" y="0" width="4" height="4" fill="#3e2723"/><rect x="36" y="4" width="4" height="4" fill="#3e2723"/><rect x="40" y="4" width="4" height="4" fill="#3e2723"/><rect x="44" y="4" width="4" height="4" fill="#3e2723"/><rect x="48" y="4" width="4" height="4" fill="#3e2723"/><rect x="8" y="8" width="4" height="4" fill="#3e2723"/><rect x="12" y="8" width="4" height="4" fill="#3e2723"/><rect x="16" y="8" width="4" height="4" fill="#3e2723"/><rect x="20" y="8" width="4" height="4" fill="#3e2723"/><rect x="24" y="8" width="4" height="4" fill="#3e2723"/><rect x="36" y="8" width="4" height="4" fill="#3e2723"/><rect x="40" y="8" width="4" height="4" fill="#3e2723"/><rect x="44" y="8" width="4" height="4" fill="#3e2723"/><rect x="4" y="12" width="4" height="4" fill="#3e2723"/><rect x="8" y="12" width="4" height="4" fill="#3e2723"/><rect x="12" y="12" width="4" height="4" fill="#3e2723"/><rect x="16" y="12" width="4" height="4" fill="#3e2723"/><rect x="20" y="12" width="4" height="4" fill="#3e2723"/><rect x="24" y="12" width="4" height="4" fill="#3e2723"/><rect x="28" y="12" width="4" height="4" fill="#3e2723"/><rect x="32" y="12" width="4" height="4" fill="#3e2723"/><rect x="36" y="12" width="4" height="4" fill="#3e2723"/><rect x="40" y="12" width="4" height="4" fill="#3e2723"/><rect x="44" y="12" width="4" height="4" fill="#3e2723"/><rect x="0" y="16" width="4" height="4" fill="#3e2723"/><rect x="4" y="16" width="4" height="4" fill="#3e2723"/><rect x="8" y="16" width="4" height="4" fill="#3e2723"/><rect x="12" y="16" width="4" height="4" fill="#3e2723"/><rect x="16" y="16" width="4" height="4" fill="#3e2723"/><rect x="20" y="16" width="4" height="4" fill="#3e2723"/><rect x="24" y="16" width="4" height="4" fill="#3e2723"/><rect x="28" y="16" width="4" height="4" fill="#3e2723"/><rect x="32" y="16" width="4" height="4" fill="#3e2723"/><rect x="36" y="16" width="4" height="4" fill="#3e2723"/><rect x="40" y="16" width="4" height="4" fill="#3e2723"/><rect x="0" y="20" width="4" height="4" fill="#3e2723"/><rect x="8" y="20" width="4" height="4" fill="#3e2723"/><rect x="12" y="20" width="4" height="4" fill="#3e2723"/><rect x="32" y="20" width="4" height="4" fill="#3e2723"/><rect x="36" y="20" width="4" height="4" fill="#3e2723"/><rect x="8" y="24" width="4" height="4" fill="#3e2723"/><rect x="12" y="24" width="4" height="4" fill="#3e2723"/><rect x="32" y="24" width="4" height="4" fill="#3e2723"/><rect x="36" y="24" width="4" height="4" fill="#3e2723"/></g><g transform="translate(200 210)">
      <rect x="0" y="10" width="40" height="24" fill="#2e7d32"/>
      <rect x="6" y="2" width="28" height="12" fill="#2e7d32"/>
    </g><g transform="translate(400 210)">
      <rect x="0" y="10" width="40" height="24" fill="#2e7d32"/>
      <rect x="6" y="2" width="28" height="12" fill="#2e7d32"/>
    </g>
  <rect x="0" y="0" width="120" height="90" fill="none" stroke="#ffffff" stroke-opacity="0.35" stroke-dasharray="4 4"/><text x="6" y="16" font-family="'Courier New',monospace" font-size="13" font-weight="bold" fill="#ffffff" fill-opacity="0.85">A1</text><text x="114" y="16" text-anchor="end" font-family="'Courier New',monospace" font-size="11" fill="#fff59d">:00 - :08</text><rect x="120" y="0" width="120" height="90" fill="none" stroke="#ffffff" stroke-opacity="0.35" stroke-dasharray="4 4"/><text x="126" y="16" font-family="'Courier New',monospace" font-size="13" font-weight="bold" fill="#ffffff" fill-opacity="0.85">B1</text><text x="234" y="16" text-anchor="end" font-family="'Courier New',monospace" font-size="11" fill="#fff59d">:08 - :15</text><rect x="240" y="0" width="120" height="90" fill="none" stroke="#ffffff" stroke-opacity="0.35" stroke-dasharray="4 4"/><text x="246" y="16" font-family="'Courier New',monospace" font-size="13" font-weight="bold" fill="#ffffff" fill-opacity="0.85">C1</text><text x="354" y="16" text-anchor="end" font-family="'Courier New',monospace" font-size="11" fill="#fff59d">:15 - :23</text><rect x="360" y="0" width="120" height="90" fill="none" stroke="#ffffff" stroke-opacity="0.35" stroke-dasharray="4 4"/><text x="366" y="16" font-family="'Courier New',monospace" font-size="13" font-weight="bold" fill="#ffffff" fill-opacity="0.85">D1</text><text x="474" y="16" text-anchor="end" font-family="'Courier New',monospace" font-size="11" fill="#fff59d">:23 - :30</text><rect x="0" y="90" width="120" height="90" fill="none" stroke="#ffffff" stroke-opacity="0.35" stroke-dasharray="4 4"/><text x="6" y="106" font-family="'Courier New',monospace" font-size="13" font-weight="bold" fill="#ffffff" fill-opacity="0.85">A2</text><text x="114" y="106" text-anchor="end" font-family="'Courier New',monospace" font-size="11" fill="#fff59d">:53 - :00</text><rect x="120" y="90" width="120" height="90" fill="none" stroke="#ffffff" stroke-opacity="0.35" stroke-dasharray="4 4"/><text x="126" y="106" font-family="'Courier New',monospace" font-size="13" font-weight="bold" fill="#ffffff" fill-opacity="0.85">B2</text><text x="234" y="106" text-anchor="end" font-family="'Courier New',monospace" font-size="11" fill="#fff59d">:45 - :53</text><rect x="240" y="90" width="120" height="90" fill="none" stroke="#ffffff" stroke-opacity="0.35" stroke-dasharray="4 4"/><text x="246" y="106" font-family="'Courier New',monospace" font-size="13" font-weight="bold" fill="#ffffff" fill-opacity="0.85">C2</text><text x="354" y="106" text-anchor="end" font-family="'Courier New',monospace" font-size="11" fill="#fff59d">:38 - :45</text><rect x="360" y="90" width="120" height="90" fill="none" stroke="#ffffff" stroke-opacity="0.35" stroke-dasharray="4 4"/><text x="366" y="106" font-family="'Courier New',monospace" font-size="13" font-weight="bold" fill="#ffffff" fill-opacity="0.85">D2</text><text x="474" y="106" text-anchor="end" font-family="'Courier New',monospace" font-size="11" fill="#fff59d">:30 - :38</text>
  <text x="240" y="34" text-anchor="middle" font-family="'Courier New',monospace" font-size="24" font-weight="bold" fill="#ffffff" stroke="#1a237e" stroke-width="0.5" opacity="0.95">DUCK HUNT</text>
  
  <g id="duck">
    <animateTransform attributeName="transform" attributeType="XML" type="translate"
      values="28 21;28 21;148 21;148 21;268 21;268 21;388 21;388 21;388 111;388 111;268 111;268 111;148 111;148 111;28 111;28 111;28 21"
      keyTimes="0;0.1025;0.125;0.22749999999999998;0.25;0.3525;0.375;0.4775;0.5;0.6025;0.625;0.7275;0.75;0.8525;0.875;0.9775;1"
      dur="60s" repeatCount="indefinite"/>
    <g>
      <animateTransform attributeName="transform" attributeType="XML" type="translate"
        values="0 0; 0 -6; 0 0" dur="0.8s" repeatCount="indefinite"/>
      <rect x="40" y="0" width="4" height="4" fill="#2e7d32"/><rect x="44" y="0" width="4" height="4" fill="#2e7d32"/><rect x="48" y="0" width="4" height="4" fill="#2e7d32"/><rect x="36" y="4" width="4" height="4" fill="#2e7d32"/><rect x="40" y="4" width="4" height="4" fill="#2e7d32"/><rect x="44" y="4" width="4" height="4" fill="#2e7d32"/><rect x="48" y="4" width="4" height="4" fill="#2e7d32"/><rect x="52" y="4" width="4" height="4" fill="#2e7d32"/><rect x="36" y="8" width="4" height="4" fill="#2e7d32"/><rect x="40" y="8" width="4" height="4" fill="#111111"/><rect x="44" y="8" width="4" height="4" fill="#2e7d32"/><rect x="48" y="8" width="4" height="4" fill="#2e7d32"/><rect x="52" y="8" width="4" height="4" fill="#f9a825"/><rect x="56" y="8" width="4" height="4" fill="#f9a825"/><rect x="36" y="12" width="4" height="4" fill="#2e7d32"/><rect x="40" y="12" width="4" height="4" fill="#2e7d32"/><rect x="44" y="12" width="4" height="4" fill="#2e7d32"/><rect x="48" y="12" width="4" height="4" fill="#2e7d32"/><rect x="0" y="16" width="4" height="4" fill="#6d4c41"/><rect x="44" y="16" width="4" height="4" fill="#fafafa"/><rect x="48" y="16" width="4" height="4" fill="#fafafa"/><rect x="52" y="16" width="4" height="4" fill="#fafafa"/><rect x="0" y="20" width="4" height="4" fill="#6d4c41"/><rect x="4" y="20" width="4" height="4" fill="#6d4c41"/><rect x="12" y="20" width="4" height="4" fill="#6d4c41"/><rect x="16" y="20" width="4" height="4" fill="#6d4c41"/><rect x="20" y="20" width="4" height="4" fill="#6d4c41"/><rect x="24" y="20" width="4" height="4" fill="#6d4c41"/><rect x="28" y="20" width="4" height="4" fill="#6d4c41"/><rect x="32" y="20" width="4" height="4" fill="#6d4c41"/><rect x="36" y="20" width="4" height="4" fill="#6d4c41"/><rect x="40" y="20" width="4" height="4" fill="#6d4c41"/><rect x="44" y="20" width="4" height="4" fill="#6d4c41"/><rect x="48" y="20" width="4" height="4" fill="#6d4c41"/><rect x="52" y="20" width="4" height="4" fill="#6d4c41"/><rect x="4" y="24" width="4" height="4" fill="#6d4c41"/><rect x="8" y="24" width="4" height="4" fill="#6d4c41"/><rect x="12" y="24" width="4" height="4" fill="#6d4c41"/><rect x="16" y="24" width="4" height="4" fill="#6d4c41"/><rect x="20" y="24" width="4" height="4" fill="#6d4c41"/><rect x="24" y="24" width="4" height="4" fill="#6d4c41"/><rect x="28" y="24" width="4" height="4" fill="#6d4c41"/><rect x="32" y="24" width="4" height="4" fill="#6d4c41"/><rect x="36" y="24" width="4" height="4" fill="#6d4c41"/><rect x="40" y="24" width="4" height="4" fill="#6d4c41"/><rect x="44" y="24" width="4" height="4" fill="#6d4c41"/><rect x="48" y="24" width="4" height="4" fill="#6d4c41"/><rect x="52" y="24" width="4" height="4" fill="#6d4c41"/><rect x="8" y="28" width="4" height="4" fill="#6d4c41"/><rect x="12" y="28" width="4" height="4" fill="#6d4c41"/><rect x="16" y="28" width="4" height="4" fill="#4e342e"/><rect x="20" y="28" width="4" height="4" fill="#4e342e"/><rect x="24" y="28" width="4" height="4" fill="#4e342e"/><rect x="28" y="28" width="4" height="4" fill="#4e342e"/><rect x="32" y="28" width="4" height="4" fill="#4e342e"/><rect x="36" y="28" width="4" height="4" fill="#4e342e"/><rect x="40" y="28" width="4" height="4" fill="#6d4c41"/><rect x="44" y="28" width="4" height="4" fill="#6d4c41"/><rect x="48" y="28" width="4" height="4" fill="#6d4c41"/><rect x="52" y="28" width="4" height="4" fill="#6d4c41"/><rect x="8" y="32" width="4" height="4" fill="#6d4c41"/><rect x="12" y="32" width="4" height="4" fill="#6d4c41"/><rect x="16" y="32" width="4" height="4" fill="#4e342e"/><rect x="20" y="32" width="4" height="4" fill="#4e342e"/><rect x="24" y="32" width="4" height="4" fill="#4e342e"/><rect x="28" y="32" width="4" height="4" fill="#4e342e"/><rect x="32" y="32" width="4" height="4" fill="#4e342e"/><rect x="36" y="32" width="4" height="4" fill="#4e342e"/><rect x="40" y="32" width="4" height="4" fill="#4e342e"/><rect x="44" y="32" width="4" height="4" fill="#6d4c41"/><rect x="48" y="32" width="4" height="4" fill="#6d4c41"/><rect x="52" y="32" width="4" height="4" fill="#6d4c41"/><rect x="12" y="36" width="4" height="4" fill="#6d4c41"/><rect x="16" y="36" width="4" height="4" fill="#6d4c41"/><rect x="20" y="36" width="4" height="4" fill="#6d4c41"/><rect x="24" y="36" width="4" height="4" fill="#6d4c41"/><rect x="28" y="36" width="4" height="4" fill="#6d4c41"/><rect x="32" y="36" width="4" height="4" fill="#6d4c41"/><rect x="36" y="36" width="4" height="4" fill="#6d4c41"/><rect x="40" y="36" width="4" height="4" fill="#6d4c41"/><rect x="44" y="36" width="4" height="4" fill="#6d4c41"/><rect x="48" y="36" width="4" height="4" fill="#6d4c41"/><rect x="16" y="40" width="4" height="4" fill="#6d4c41"/><rect x="20" y="40" width="4" height="4" fill="#6d4c41"/><rect x="24" y="40" width="4" height="4" fill="#6d4c41"/><rect x="28" y="40" width="4" height="4" fill="#6d4c41"/><rect x="32" y="40" width="4" height="4" fill="#6d4c41"/><rect x="36" y="40" width="4" height="4" fill="#6d4c41"/><rect x="40" y="40" width="4" height="4" fill="#6d4c41"/><rect x="44" y="40" width="4" height="4" fill="#6d4c41"/><rect x="24" y="44" width="4" height="4" fill="#f9a825"/><rect x="28" y="44" width="4" height="4" fill="#f9a825"/><rect x="40" y="44" width="4" height="4" fill="#f9a825"/><rect x="44" y="44" width="4" height="4" fill="#f9a825"/>
      <rect x="16" y="28" width="28" height="8" fill="#4e342e">
        <animate attributeName="y" values="28;20;28" dur="0.45s" repeatCount="indefinite"/>
      </rect>
    </g>
  </g>
  
</svg>
